<svg width="32" height="32" viewBox="0 0 32 32" fill="none" xmlns="http://www.w3.org/2000/svg">
<rect width="32" height="32" rx="16" fill="#ECF0FC"/>
<path d="M7.66663 11.833V13.4997H11V15.1663H9.33329C8.89127 15.1663 8.46734 15.3419 8.15478 15.6545C7.84222 15.9671 7.66663 16.391 7.66663 16.833V20.1663H12.6666V18.4997H9.33329V16.833H11C11.442 16.833 11.8659 16.6574 12.1785 16.3449C12.491 16.0323 12.6666 15.6084 12.6666 15.1663V13.4997C12.6666 12.5747 11.9166 11.833 11 11.833H7.66663ZM13.5 11.833V20.1663H15.1666V16.833H17.6666V15.1663H15.1666V13.4997H18.5V11.833H13.5ZM21 11.833C20.5579 11.833 20.134 12.0086 19.8214 12.3212C19.5089 12.6337 19.3333 13.0576 19.3333 13.4997V20.1663H21V17.6663H22.6666V20.1663H24.3333V13.4997C24.3333 13.0576 24.1577 12.6337 23.8451 12.3212C23.5326 12.0086 23.1087 11.833 22.6666 11.833H21ZM21 13.4997H22.6666V15.9997H21V13.4997Z" fill="#4169E6"/>
</svg>
