<svg width="57" height="56" viewBox="0 0 57 56" fill="none" xmlns="http://www.w3.org/2000/svg">
<rect x="0.5" width="56" height="56" rx="28" fill="#EFE6F5"/>
<g clip-path="url(#clip0_6831_153841)">
<path d="M25.8333 14.668V17.6813L28.5 19.4546V17.3346H41.8333V37.3346H35.1667V40.0013H44.5V14.668H25.8333ZM22.5 18.668L12.5 25.3346V40.0013H32.5V25.3346L22.5 18.668ZM31.1667 20.0013V21.2413L33.3133 22.668H33.8333V20.0013H31.1667ZM36.5 20.0013V22.668H39.1667V20.0013H36.5ZM22.5 22.0013L29.8333 26.668V37.3346H25.8333V29.3346H19.1667V37.3346H15.1667V26.668L22.5 22.0013ZM36.5 25.3346V28.0013H39.1667V25.3346H36.5ZM36.5 30.668V33.3346H39.1667V30.668H36.5Z" fill="#5C0099"/>
</g>
<defs>
<clipPath id="clip0_6831_153841">
<rect width="32" height="32" fill="white" transform="translate(12.5 12)"/>
</clipPath>
</defs>
</svg>
