<svg width="48" height="48" viewBox="0 0 48 48" fill="none" xmlns="http://www.w3.org/2000/svg">
<rect width="48" height="48" rx="24" fill="#ECF0FC"/>
<path d="M24.0003 10.7188C16.667 10.7188 10.667 16.7054 10.667 24.0788C10.667 30.7454 15.547 36.2787 21.9203 37.2787V27.9454H18.5337V24.0788H21.9203V21.1321C21.9203 17.7854 23.907 15.9454 26.9603 15.9454C28.4137 15.9454 29.9337 16.1988 29.9337 16.1988V19.4921H28.2537C26.6003 19.4921 26.0803 20.5188 26.0803 21.5721V24.0788H29.787L29.187 27.9454H26.0803V37.2787C29.2222 36.7825 32.0833 35.1794 34.1469 32.7588C36.2105 30.3382 37.3408 27.2596 37.3337 24.0788C37.3337 16.7054 31.3337 10.7188 24.0003 10.7188Z" fill="#4169E6"/>
</svg>
