<svg width="32" height="32" viewBox="0 0 32 32" fill="none" xmlns="http://www.w3.org/2000/svg">
<rect width="32" height="32" rx="16" fill="#ECF0FC"/>
<path d="M16 20.1663C15.075 20.1663 14.3334 19.4163 14.3334 18.4997C14.3334 17.5747 15.075 16.833 16 16.833C16.4421 16.833 16.866 17.0086 17.1786 17.3212C17.4911 17.6337 17.6667 18.0576 17.6667 18.4997C17.6667 18.9417 17.4911 19.3656 17.1786 19.6782C16.866 19.9907 16.4421 20.1663 16 20.1663ZM21 22.6663V14.333H11V22.6663H21ZM21 12.6663C21.4421 12.6663 21.866 12.8419 22.1786 13.1545C22.4911 13.4671 22.6667 13.891 22.6667 14.333V22.6663C22.6667 23.1084 22.4911 23.5323 22.1786 23.8449C21.866 24.1574 21.4421 24.333 21 24.333H11C10.075 24.333 9.33337 23.583 9.33337 22.6663V14.333C9.33337 13.408 10.075 12.6663 11 12.6663H11.8334V10.9997C11.8334 9.89461 12.2724 8.8348 13.0538 8.0534C13.8352 7.27199 14.895 6.83301 16 6.83301C16.5472 6.83301 17.089 6.94078 17.5946 7.15018C18.1001 7.35957 18.5594 7.66649 18.9463 8.0534C19.3332 8.44031 19.6401 8.89964 19.8495 9.40516C20.0589 9.91068 20.1667 10.4525 20.1667 10.9997V12.6663H21ZM16 8.49967C15.337 8.49967 14.7011 8.76307 14.2323 9.23191C13.7634 9.70075 13.5 10.3366 13.5 10.9997V12.6663H18.5V10.9997C18.5 10.3366 18.2366 9.70075 17.7678 9.23191C17.299 8.76307 16.6631 8.49967 16 8.49967Z" fill="#4169E6"/>
</svg>
