<svg width="32" height="32" viewBox="0 0 32 32" fill="none" xmlns="http://www.w3.org/2000/svg">
<rect width="32" height="32" rx="16" fill="#ECF0FC"/>
<path d="M9.33329 20.1663V13.4997H7.66663V11.833H11V20.1663H9.33329ZM24.3333 18.4997C24.3333 19.4247 23.5833 20.1663 22.6666 20.1663H19.3333V18.4997H22.6666V16.833H21V15.1663H22.6666V13.4997H19.3333V11.833H22.6666C23.1087 11.833 23.5326 12.0086 23.8451 12.3212C24.1577 12.6337 24.3333 13.0576 24.3333 13.4997V14.7497C24.3333 15.0812 24.2016 15.3991 23.9672 15.6336C23.7328 15.868 23.4148 15.9997 23.0833 15.9997C23.4148 15.9997 23.7328 16.1314 23.9672 16.3658C24.2016 16.6002 24.3333 16.9182 24.3333 17.2497V18.4997ZM17.6666 18.4997V20.1663H12.6666V16.833C12.6666 15.908 13.4166 15.1663 14.3333 15.1663H16V13.4997H12.6666V11.833H16C16.442 11.833 16.8659 12.0086 17.1785 12.3212C17.491 12.6337 17.6666 13.0576 17.6666 13.4997V15.1663C17.6666 16.0913 16.9166 16.833 16 16.833H14.3333V18.4997H17.6666Z" fill="#4169E6"/>
</svg>
