<svg width="56" height="56" viewBox="0 0 56 56" fill="none" xmlns="http://www.w3.org/2000/svg">
<rect width="56" height="56" rx="28" fill="#FFF4E6"/>
<path d="M35.3327 34.4254L38.586 36.3054L37.586 38.0387L33.3327 35.5854V30.6654H35.3327V34.4254ZM43.9993 34.6654C43.9993 39.8254 39.826 43.9987 34.666 43.9987C29.506 43.9987 25.3327 39.8254 25.3327 34.6654C25.3327 34.212 25.3727 33.772 25.4393 33.332H14.666V17.332H38.666V26.2387C41.8127 27.7454 43.9993 30.9454 43.9993 34.6654ZM26.2393 30.6654C26.4794 30.1854 26.7327 29.732 27.0393 29.292C26.9193 29.332 26.7993 29.332 26.666 29.332C24.4527 29.332 22.666 27.5454 22.666 25.332C22.666 23.1187 24.4527 21.332 26.666 21.332C28.8793 21.332 30.666 23.1187 30.666 25.332C30.666 25.6654 30.6127 25.9987 30.5327 26.3054C31.786 25.692 33.186 25.332 34.666 25.332C35.1194 25.332 35.5593 25.372 35.9993 25.4387V22.6654C34.5327 22.6654 33.3327 21.4787 33.3327 19.9987H19.9993C19.9993 21.4787 18.8127 22.6654 17.3327 22.6654V27.9987C18.8127 27.9987 19.9993 29.1987 19.9993 30.6654H26.2393ZM41.3327 34.6654C41.3327 30.9854 38.346 27.9987 34.666 27.9987C30.986 27.9987 27.9993 30.9854 27.9993 34.6654C27.9993 38.3454 30.986 41.332 34.666 41.332C38.346 41.332 41.3327 38.3454 41.3327 34.6654Z" fill="#FF8C00"/>
</svg>
