<svg width="56" height="56" viewBox="0 0 56 56" fill="none" xmlns="http://www.w3.org/2000/svg">
<rect width="56" height="56" rx="28" fill="#ECF0FC"/>
<path d="M40.9469 23.6116C42.6136 21.9449 41.8536 19.9983 40.9469 19.0516L36.9469 15.0516C35.2669 13.3849 33.3336 14.1449 32.3869 15.0516L30.1202 17.3316H26.6669C24.1336 17.3316 22.6669 18.6649 21.9202 20.1983L16.0002 26.1183V31.4516L15.0536 32.3849C13.3869 34.0649 14.1469 35.9983 15.0536 36.9449L19.0536 40.9449C19.7736 41.6649 20.5469 41.9316 21.2802 41.9316C22.2269 41.9316 23.0936 41.4649 23.6136 40.9449L27.2136 37.3316H32.0002C34.2669 37.3316 35.4136 35.9183 35.8269 34.5316C37.3336 34.1316 38.1602 32.9849 38.4936 31.8649C40.5602 31.3316 41.3336 29.3716 41.3336 27.9983V23.9983H40.5469L40.9469 23.6116ZM38.6669 27.9983C38.6669 28.5983 38.4136 29.3316 37.3336 29.3316H36.0002V30.6649C36.0002 31.2649 35.7469 31.9983 34.6669 31.9983H33.3336V33.3316C33.3336 33.9316 33.0802 34.6649 32.0002 34.6649H26.1202L21.7469 39.0383C21.3336 39.4249 21.0936 39.1983 20.9469 39.0516L16.9602 35.0783C16.5736 34.6649 16.8002 34.4249 16.9469 34.2783L18.6669 32.5449V27.2116L21.3336 24.5449V26.6649C21.3336 28.2783 22.4002 30.6649 25.3336 30.6649C28.2669 30.6649 29.3336 28.2783 29.3336 26.6649H38.6669V27.9983ZM39.0536 21.7183L36.7869 23.9983H26.6669V26.6649C26.6669 27.2649 26.4136 27.9983 25.3336 27.9983C24.2536 27.9983 24.0002 27.2649 24.0002 26.6649V22.6649C24.0002 22.0516 24.2269 19.9983 26.6669 19.9983H31.2136L34.2536 16.9583C34.6669 16.5716 34.9069 16.7983 35.0536 16.9449L39.0402 20.9183C39.4269 21.3316 39.2002 21.5716 39.0536 21.7183Z" fill="#4169E6"/>
</svg>
