<svg width="48" height="48" viewBox="0 0 48 48" fill="none" xmlns="http://www.w3.org/2000/svg">
<rect width="48" height="48" rx="24" fill="#ECF0FC"/>
<path d="M37.947 15.9987C36.9204 16.4654 35.8137 16.772 34.667 16.9187C35.8404 16.212 36.747 15.092 37.1737 13.7454C36.067 14.412 34.8404 14.8787 33.547 15.1454C32.4937 13.9987 31.0137 13.332 29.3337 13.332C26.2004 13.332 23.6404 15.892 23.6404 19.052C23.6404 19.5054 23.6937 19.9454 23.787 20.3587C19.0404 20.1187 14.8137 17.8387 12.0004 14.3854C11.507 15.2254 11.227 16.212 11.227 17.252C11.227 19.2387 12.227 20.9987 13.7737 21.9987C12.827 21.9987 11.947 21.732 11.1737 21.332C11.1737 21.332 11.1737 21.332 11.1737 21.372C11.1737 24.1454 13.147 26.4654 15.7604 26.9854C15.2804 27.1187 14.7737 27.1854 14.2537 27.1854C13.8937 27.1854 13.5337 27.1454 13.187 27.0787C13.907 29.332 16.0004 31.012 18.5204 31.052C16.5737 32.5987 14.107 33.5054 11.4137 33.5054C10.9604 33.5054 10.507 33.4787 10.0537 33.4254C12.587 35.052 15.6004 35.9987 18.827 35.9987C29.3337 35.9987 35.107 27.2787 35.107 19.7187C35.107 19.4654 35.107 19.2254 35.0937 18.972C36.2137 18.172 37.1737 17.1587 37.947 15.9987Z" fill="#4169E6"/>
</svg>
